<?xml version="1.0" encoding="UTF-8"?>
<svg id="Layer_1" xmlns="http://www.w3.org/2000/svg" version="1.1" viewBox="0 0 100 100">
  <!-- Generator: Adobe Illustrator 30.1.0, SVG Export Plug-In . SVG Version: 2.1.1 Build 136)  -->
  <defs>
    <style>
      .st0 {
        fill: #002bff;
      }

      .st1 {
        fill: #fff;
      }

      .st2 {
        fill: #e8f0f8;
      }

      .st3 {
        fill: #a8cfff;
      }
    </style>
  </defs>
  <path class="st3" d="M60.3,39.7l37.5-4.5C91.5,14.8,72.5,0,50,0S0,22.4,0,50s22.4,50,50,50,41.5-14.9,47.8-35.3l-37.4-4.5v-20.4Z"/>
  <path class="st1" d="M97.8,35.2l-37.5,4.5v20.4c.1,0,37.5,4.5,37.5,4.5,1.4-4.6,2.2-9.6,2.2-14.7s-.8-10.1-2.2-14.8h0Z"/>
  <path class="st2" d="M60.4,39.7H18.7v20.4h41.7v-20.4Z"/>
  <path class="st0" d="M63.8,32.6v7.1H15.2v-7.1h3.5s6-16.5,18.9-18c0,.4.9.8,2,.8s1.9-.3,2-.8c12.7,1.7,18.8,18,18.8,18h3.5ZM41.5,16.9c0,.5.9.9,2,.9s2-.4,2-.9-.9-.9-2-.9-2,.4-2,.9ZM33.6,16.9c0,.5.9.9,2,.9s2-.4,2-.9-.9-.9-2-.9-2,.4-2,.9ZM37.5,18.8c0,.5.9.9,2,.9s2-.4,2-.9-.9-.9-2-.9-2,.4-2,.9Z"/>
  <path class="st0" d="M54.6,65.1h9.3c0,0,0-5,0-5H15.3v5h9.3c0,0-7,5-7,5l-1.5,16.6c8.9,8.2,20.8,13.2,33.9,13.2s9.6-.7,14.1-2l-2.4-27.8-7-5h0Z"/>
</svg>